#N canvas 2404 -434 692 812 12;
#X obj 91 51 bng 15 250 50 0 empty empty empty 17 7 0 10 -262144 -1
-1;
#X floatatom 129 55 5 0 0 0 - - -;
#X obj 88 98 f;
#X floatatom 62 140 5 0 0 0 - - -;
#X obj 266 56 bng 15 250 50 0 empty empty empty 17 7 0 10 -262144 -1
-1;
#X floatatom 299 55 5 0 0 0 - - -;
#X obj 263 103 f;
#X floatatom 208 152 5 0 0 0 - - -;
#X obj 263 131 + 1;
#X obj 78 240 bng 15 250 50 0 empty empty empty 17 7 0 10 -262144 -1
-1;
#X obj 122 241 bng 15 250 50 0 empty empty empty 17 7 0 10 -262144
-1 -1;
#X msg 90 293 500;
#X msg 35 294 440;
#X obj 35 333 osc~;
#X msg 123 380 0.7;
#X msg 78 381 0.4;
#X obj 33 453 *~;
#X obj 32 518 dac~;
#X msg 166 376 0;
#X obj 167 242 bng 15 250 50 0 empty empty empty 17 7 0 10 -262144
-1 -1;
#X obj 367 354 osc~;
#X obj 367 386 *~ 0.5;
#X obj 365 425 dac~;
#X obj 413 352 print a;
#X obj 506 354 osc~;
#X obj 553 349 print b;
#X floatatom 417 244 5 0 0 0 - - -;
#X obj 366 324 * 40;
#X obj 506 321 * 60;
#X obj 85 576 bng 15 250 50 0 empty empty empty 17 7 0 10 -262144 -1
-1;
#X obj 85 596 random 800;
#X obj 85 620 + 200;
#X floatatom 85 644 5 0 0 0 - - -;
#X obj 85 667 osc~;
#X obj 85 691 *~ 0.7;
#X obj 86 755 dac~;
#X obj 263 155 mod 7;
#X floatatom 263 179 5 0 0 0 - - -;
#X connect 0 0 2 0;
#X connect 1 0 2 1;
#X connect 2 0 3 0;
#X connect 4 0 6 0;
#X connect 5 0 6 1;
#X connect 6 0 7 0;
#X connect 6 0 8 0;
#X connect 8 0 6 1;
#X connect 8 0 36 0;
#X connect 9 0 12 0;
#X connect 9 0 15 0;
#X connect 10 0 11 0;
#X connect 10 0 14 0;
#X connect 11 0 13 0;
#X connect 12 0 13 0;
#X connect 13 0 16 0;
#X connect 14 0 16 1;
#X connect 15 0 16 1;
#X connect 16 0 17 0;
#X connect 18 0 16 1;
#X connect 19 0 18 0;
#X connect 20 0 21 0;
#X connect 21 0 22 0;
#X connect 21 0 22 1;
#X connect 24 0 21 0;
#X connect 26 0 27 0;
#X connect 26 0 28 0;
#X connect 27 0 20 0;
#X connect 27 0 23 0;
#X connect 28 0 24 0;
#X connect 28 0 25 0;
#X connect 29 0 30 0;
#X connect 30 0 31 0;
#X connect 31 0 32 0;
#X connect 32 0 33 0;
#X connect 33 0 34 0;
#X connect 36 0 37 0;
