#N canvas 2834 -471 463 369 12;
#X obj 51 106 osc~ 440;
#X obj 234 132 line;
#X msg 234 104 0 \, 1 1000 10;
#X obj 52 265 dac~;
#X obj 52 215 *~ 0;
#X obj 134 137 line;
#X msg 134 104 1 \, 0 1000 10;
#X obj 199 36 tgl 15 0 empty empty empty 17 7 0 10 -262144 -1 -1 0
1;
#X obj 186 71 route;
#X connect 0 0 4 0;
#X connect 1 0 4 1;
#X connect 2 0 1 0;
#X connect 4 0 3 0;
#X connect 4 0 3 1;
#X connect 5 0 4 1;
#X connect 6 0 5 0;
#X connect 7 0 8 0;
#X connect 8 0 6 0;
#X connect 8 1 2 0;
