#N canvas 140 145 744 519 12;
#X obj 159 97 osc~;
#X obj 263 294 dac~;
#X obj 158 37 * 2000;
#X obj 157 4 r Channel-A;
#X obj 158 68 + 20;
#X obj 159 130 *~ 0.3;
#X obj 271 97 osc~;
#X obj 270 37 * 2000;
#X obj 270 68 + 20;
#X obj 271 130 *~ 0.3;
#X obj 382 98 osc~;
#X obj 381 38 * 2000;
#X obj 381 69 + 20;
#X obj 382 131 *~ 0.3;
#X obj 266 5 r Channel-B;
#X obj 380 5 r Channel-C;
#X obj 291 231 *~;
#X obj 502 139 r Channel-D;
#X connect 0 0 5 0;
#X connect 2 0 4 0;
#X connect 3 0 2 0;
#X connect 4 0 0 0;
#X connect 5 0 16 0;
#X connect 6 0 9 0;
#X connect 7 0 8 0;
#X connect 8 0 6 0;
#X connect 9 0 16 0;
#X connect 10 0 13 0;
#X connect 11 0 12 0;
#X connect 12 0 10 0;
#X connect 13 0 16 0;
#X connect 14 0 7 0;
#X connect 15 0 11 0;
#X connect 16 0 1 0;
#X connect 16 0 1 1;
#X connect 17 0 16 1;
