#N canvas 657 157 601 510 12;
#X obj 82 43 adc~;
#X obj 77 129 tabwrite~ sampler;
#X obj 306 76 table sampler 144000;
#X obj 268 16 r Channel-Push;
#X obj 200 56 sel 1 0;
#X msg 189 93 stop;
#X obj 245 369 tabread~ sampler;
#X obj 241 417 dac~;
#X obj 239 289 phasor~;
#X obj 241 331 *~ 1;
#X obj 253 107 timer;
#X obj 237 181 t b f f;
#X obj 360 298 * 48;
#X msg 187 218 1000;
#X obj 218 249 /;
#X obj 197 13 tgl 15 0 empty empty empty 17 7 0 10 -262144 -1 -1 0
1;
#X connect 0 0 1 0;
#X connect 0 1 1 0;
#X connect 4 0 1 0;
#X connect 4 0 10 0;
#X connect 4 1 5 0;
#X connect 4 1 10 1;
#X connect 5 0 1 0;
#X connect 6 0 7 0;
#X connect 6 0 7 1;
#X connect 8 0 9 0;
#X connect 9 0 6 0;
#X connect 10 0 11 0;
#X connect 11 0 13 0;
#X connect 11 1 14 1;
#X connect 11 2 12 0;
#X connect 12 0 9 1;
#X connect 13 0 14 0;
#X connect 14 0 8 0;
#X connect 15 0 4 0;
