#N canvas 105 78 734 745 12;
#X obj 82 43 adc~;
#X obj 129 218 tabwrite~ sampler;
#X obj 549 92 table sampler 144000;
#X obj 505 16 r Channel-Push;
#X obj 200 56 sel 1 0;
#X msg 211 128 stop;
#X obj 265 599 tabread~ sampler;
#X obj 248 669 dac~;
#X obj 258 503 phasor~;
#X obj 266 535 *~ 1;
#X obj 271 128 timer;
#X obj 269 335 t b f f;
#X obj 342 474 * 48;
#X msg 209 374 1000;
#X obj 244 413 /;
#X obj 197 13 tgl 15 0 empty empty empty 17 7 0 10 -262144 -1 -1 0
1;
#X obj 97 130 *~ 1;
#X obj 263 8 tgl 15 0 empty empty empty 17 7 0 10 -262144 -1 -1 0 1
;
#X obj 39 95 *~ 0;
#X obj 254 636 *~ 1;
#X obj 368 645 tgl 15 0 empty empty empty 17 7 0 10 -262144 -1 -1 1
1;
#X obj 254 56 sel 1 0;
#X obj 405 252 vsl 15 128 0.8 1.2 0 0 empty empty Speed 0 -9 0 10 -262144
-1 -1 5300 1;
#X obj 257 467 *;
#X msg 406 186 1;
#X floatatom 445 383 5 0 0 0 speed - -;
#X obj 532 428 vsl 15 128 0 144000 0 0 empty empty empty 0 -9 0 10
-262144 -1 -1 5800 1;
#X floatatom 561 611 10 0 0 0 - - -;
#X msg 553 323 0;
#X obj 221 442 bng 15 250 50 0 empty empty empty 17 7 0 10 -262144
-1 -1;
#X obj 330 569 +~;
#X msg 367 515 1;
#X floatatom 550 151 5 0 0 0 - - -;
#X obj 549 212 > 10;
#X obj 563 253 bng 15 250 50 0 empty empty empty 17 7 0 10 -262144
-1 -1;
#X obj 610 269 print;
#X obj 485 84 + 0;
#X obj 454 652 >~;
#X obj 384 434 threshold~ 1 0 0 0;
#X obj 611 417 vsl 15 128 0 1 0 0 empty empty length 0 -9 0 10 -262144
-1 -1 4300 1;
#X msg 611 332 1;
#X obj 458 472 *;
#X connect 0 0 16 0;
#X connect 0 1 16 0;
#X connect 4 0 1 0;
#X connect 4 0 10 0;
#X connect 4 1 5 0;
#X connect 4 1 10 1;
#X connect 5 0 1 0;
#X connect 6 0 18 0;
#X connect 6 0 19 0;
#X connect 8 0 9 0;
#X connect 9 0 30 0;
#X connect 10 0 11 0;
#X connect 11 0 13 0;
#X connect 11 1 14 1;
#X connect 11 2 12 0;
#X connect 12 0 41 1;
#X connect 12 0 9 1;
#X connect 12 0 37 1;
#X connect 13 0 14 0;
#X connect 14 0 23 1;
#X connect 14 0 29 0;
#X connect 15 0 4 0;
#X connect 16 0 1 0;
#X connect 17 0 18 1;
#X connect 17 0 21 0;
#X connect 18 0 16 0;
#X connect 19 0 7 0;
#X connect 19 0 7 1;
#X connect 20 0 19 1;
#X connect 21 0 1 0;
#X connect 21 1 5 0;
#X connect 22 0 23 0;
#X connect 22 0 25 0;
#X connect 23 0 8 0;
#X connect 24 0 22 0;
#X connect 26 0 27 0;
#X connect 26 0 30 1;
#X connect 28 0 26 0;
#X connect 29 0 23 0;
#X connect 30 0 6 0;
#X connect 30 0 37 0;
#X connect 31 0 8 1;
#X connect 32 0 33 0;
#X connect 33 0 34 0;
#X connect 33 0 35 0;
#X connect 37 0 38 0;
#X connect 38 0 8 1;
#X connect 39 0 41 0;
#X connect 40 0 39 0;
